<?xml version="1.0" encoding="utf-8"?>
<!-- Generator: Adobe Illustrator 28.1.0, SVG Export Plug-In . SVG Version: 6.00 Build 0)  -->
<svg viewBox="0 0 35 35">
<style type="text/css">
	.st0{fill:none;stroke:#454545;stroke-linejoin:round;stroke-miterlimit:10;}
</style>
<g>
	<path class="st0" d="M33.5,17.5c0-8.8-7.2-16-16-16s-16,7.2-16,16c0,4.9,2.2,9.2,5.6,12.1c0.7-5.2,5.1-9.1,10.4-9.1
		c-4.1,0-7.5-3.4-7.5-7.5s3.4-7.5,7.5-7.5S25,8.9,25,13s-3.4,7.5-7.5,7.5c5.3,0,9.7,4,10.4,9.1C31.3,26.7,33.5,22.4,33.5,17.5z"/>
	<circle class="st0" cx="17.5" cy="13" r="7.5"/>
	<path class="st0" d="M17.5,20.5c-5.3,0-9.7,4-10.4,9.1c2.8,2.4,6.4,3.9,10.4,3.9s7.6-1.5,10.4-3.9C27.2,24.5,22.8,20.5,17.5,20.5z"
		/>
</g>
</svg>
