<?xml version="1.0" encoding="utf-8"?>
<!-- Generator: Adobe Illustrator 28.1.0, SVG Export Plug-In . SVG Version: 6.00 Build 0)  -->
<svg viewBox="0 0 35 35">
<style type="text/css">
	.st0{fill:none;stroke:#454545;stroke-linejoin:round;stroke-miterlimit:10;}
</style>
<g>
	<path class="st0" d="M1.5,33.5c0.5-0.1,0.8-0.2,1.1-0.3c2.3-0.6,4.5-1.6,6.6-2.8c0.9-0.5,1.8-1,2.4-1.9c0.9-1.2,1-2.5,0.3-3.9
		c-0.6-1.3-1.8-2-3.2-2c-1.4-0.1-2.5,0.6-3.3,1.8c-1.6,2.2-2.7,4.7-3.5,7.3C1.8,32.2,1.7,32.8,1.5,33.5z"/>
	<g>
		<path class="st0" d="M12.7,16.5c-2.3,2.5-2.5,5.7-1.4,6.8c1.2,1.2,4.4,1.2,7.1-1.1L12.7,16.5z"/>
		<path class="st0" d="M19.2,21.5c3.2-2.7,5.8-5.9,8.2-9.3c2.4-3.4,4.6-6.9,6.1-10.7c-7.6,3.5-14.4,8-20.1,14.2
			c-0.3,0.2-0.5,0.5-0.7,0.8l5.7,5.7C18.7,22,18.9,21.8,19.2,21.5z"/>
	</g>
</g>
</svg>
