<?xml version="1.0" encoding="utf-8"?>
<!-- Generator: Adobe Illustrator 27.9.1, SVG Export Plug-In . SVG Version: 6.00 Build 0)  -->
<svg viewBox="0 0 400 400">
<g>
	<path d="M135.7,36.98c3.13-1.36,6.78-0.41,8.63,3.85c2.17,5-0.96,16.16-3.41,22.87c-6.45-2.47-16.33-7.41-19.08-13.75
		c-1.42-3.27-0.18-6.88,3.2-8.35c3.33-1.44,5.32-0.11,7.21,1.97C132.06,41.2,132.32,38.45,135.7,36.98z M139.77,60.89
		c1.54-4.86,4.94-13.67,2.69-18.87c-1.37-3.16-3.26-4.23-6.18-2.96c-2.25,0.98-1.76,3.74-1.67,5.66c0.2,0.93-0.31,1.69-1.02,2
		c-0.71,0.31-1.62,0.16-2.22-0.59c-0.69-0.88-2.63-3.79-4.99-2.77c-2.76,1.2-3.46,3.23-2.17,6.21c2.7,6.23,10.38,9.35,15.44,11.37
		L139.77,60.89z"/>
	<path d="M172.82,52.77c-1.38,0.25-2.63,0.22-3.76-0.11c-1.12-0.33-2.05-0.94-2.79-1.82c-0.74-0.88-1.23-1.98-1.48-3.31l-1.82-9.88
		c-0.25-1.34-0.18-2.55,0.2-3.63c0.38-1.08,1.03-1.97,1.96-2.68c0.93-0.71,2.09-1.19,3.47-1.44c1.38-0.25,2.63-0.21,3.74,0.13
		c1.11,0.34,2.04,0.94,2.78,1.81c0.74,0.86,1.23,1.96,1.48,3.31l-3.29,0.61c-0.21-1.16-0.68-1.99-1.4-2.48
		c-0.72-0.5-1.64-0.64-2.76-0.44s-1.93,0.67-2.44,1.4c-0.51,0.72-0.66,1.66-0.45,2.79l1.83,9.91c0.21,1.14,0.68,1.96,1.42,2.47
		c0.73,0.51,1.66,0.66,2.78,0.45c1.12-0.21,1.92-0.67,2.42-1.41c0.5-0.73,0.64-1.67,0.43-2.81l3.29-0.61
		c0.24,1.32,0.18,2.52-0.2,3.6s-1.03,1.98-1.95,2.69C175.35,52.03,174.2,52.52,172.82,52.77z"/>
	<path d="M190.47,50.58c-1.4,0.09-2.64-0.1-3.7-0.58c-1.06-0.47-1.91-1.19-2.53-2.14s-0.97-2.1-1.05-3.44l-0.28-4.39
		c-0.09-1.36,0.12-2.55,0.61-3.56c0.5-1.01,1.24-1.82,2.24-2.42c1-0.6,2.2-0.95,3.6-1.03c1.4-0.09,2.64,0.1,3.7,0.58
		s1.91,1.18,2.53,2.12c0.62,0.95,0.97,2.1,1.06,3.46l0.28,4.39c0.08,1.34-0.12,2.52-0.62,3.55s-1.24,1.84-2.24,2.44
		C193.08,50.15,191.88,50.49,190.47,50.58z M190.29,47.64c1.13-0.07,1.99-0.44,2.57-1.11c0.58-0.67,0.83-1.59,0.76-2.77l-0.28-4.39
		c-0.07-1.2-0.44-2.08-1.1-2.66c-0.66-0.58-1.55-0.83-2.69-0.76c-1.11,0.07-1.97,0.43-2.56,1.09s-0.85,1.59-0.77,2.78l0.28,4.39
		c0.07,1.18,0.44,2.06,1.11,2.65C188.28,47.45,189.18,47.71,190.29,47.64z"/>
	<path d="M201.72,49.86l0.94-17.02l3.31,0.18l-0.18,3.25l0.8,0.04l-0.85,0.73c0.08-1.36,0.54-2.4,1.38-3.12
		c0.85-0.72,1.98-1.04,3.41-0.96c1.69,0.09,3.01,0.71,3.96,1.85s1.38,2.63,1.27,4.46l-0.62,11.33l-3.34-0.18l0.61-10.96
		c0.06-1.11-0.19-1.99-0.76-2.62c-0.56-0.63-1.36-0.98-2.39-1.03c-1.05-0.06-1.9,0.21-2.54,0.81c-0.64,0.6-1,1.49-1.06,2.69
		l-0.59,10.74L201.72,49.86z"/>
	<path d="M228.07,52.61c-1.53-0.27-2.64-0.9-3.35-1.88c-0.71-0.99-0.93-2.22-0.67-3.71l1.6-9.07l-4.64-0.82l0.53-2.99l4.64,0.82
		l0.83-4.73l3.3,0.58l-0.83,4.73l6.56,1.16l-0.53,2.99l-6.56-1.16l-1.6,9.07c-0.2,1.16,0.25,1.84,1.37,2.04l4.58,0.81l-0.53,2.99
		L228.07,52.61z"/>
	<path d="M241.95,56.26c-1.7-0.52-2.91-1.36-3.62-2.54c-0.71-1.18-0.84-2.53-0.37-4.05c0.47-1.54,1.36-2.6,2.66-3.16
		c1.31-0.56,2.87-0.57,4.69-0.02l4.54,1.38l0.46-1.51c0.27-0.89,0.2-1.67-0.2-2.33c-0.4-0.66-1.11-1.15-2.12-1.45
		c-0.89-0.27-1.69-0.3-2.4-0.1c-0.71,0.21-1.21,0.61-1.5,1.21l-3.14-0.96c0.62-1.41,1.65-2.37,3.1-2.88
		c1.44-0.51,3.06-0.5,4.86,0.05c1.94,0.59,3.32,1.54,4.15,2.86s0.99,2.82,0.48,4.5l-3.39,11.15l-3.11-0.95l0.91-3l-0.53-0.16
		l0.71-0.43c-0.36,1.19-1.1,1.99-2.23,2.42C244.76,56.73,243.45,56.71,241.95,56.26z M243.65,54.08c1.15,0.35,2.18,0.34,3.1-0.01
		c0.92-0.36,1.52-0.99,1.79-1.9l0.65-2.14l-4.48-1.36c-0.83-0.25-1.56-0.22-2.18,0.08c-0.62,0.31-1.05,0.86-1.29,1.65
		c-0.25,0.83-0.17,1.58,0.26,2.23C241.92,53.29,242.64,53.78,243.65,54.08z"/>
	<path d="M260.5,63.04c-1.29-0.57-2.31-1.31-3.07-2.22c-0.76-0.91-1.2-1.94-1.31-3.09c-0.12-1.15,0.1-2.33,0.64-3.56l1.8-4.08
		c0.55-1.25,1.29-2.21,2.21-2.89c0.92-0.68,1.97-1.04,3.16-1.1c1.19-0.05,2.42,0.2,3.71,0.77c1.87,0.83,3.16,1.98,3.86,3.46
		c0.7,1.48,0.7,3.09,0.01,4.82l-3.06-1.35c0.34-0.91,0.33-1.74-0.02-2.48c-0.35-0.74-1.01-1.33-1.97-1.75
		c-1.04-0.46-1.99-0.53-2.85-0.22s-1.52,0.99-1.99,2.05l-1.81,4.11c-0.47,1.06-0.53,2.01-0.18,2.87c0.35,0.85,1.04,1.51,2.08,1.97
		c0.96,0.43,1.84,0.52,2.62,0.28c0.78-0.24,1.4-0.79,1.85-1.66l3.06,1.35c-0.81,1.68-2,2.76-3.56,3.24S262.37,63.86,260.5,63.04z"/>
	<path d="M278.05,71.86c-1.33-0.79-2.16-1.77-2.47-2.94c-0.31-1.17-0.09-2.41,0.68-3.7l4.7-7.92l-4.05-2.4l1.55-2.61l4.05,2.4
		l2.45-4.13l2.88,1.71l-2.45,4.13l5.73,3.4l-1.55,2.61l-5.73-3.4l-4.7,7.92c-0.6,1.01-0.41,1.81,0.56,2.39l4,2.37l-1.55,2.61
		L278.05,71.86z"/>
	<path d="M299.52,87.52l11.92-12.19l2,1.95l-1.52,1.55l0.44,0.43l-0.79,0.14c0.67-0.68,1.38-1.04,2.15-1.09
		c0.77-0.05,1.46,0.24,2.08,0.84c0.67,0.65,0.92,1.41,0.78,2.28s-0.66,1.76-1.54,2.66l0.57-1.65l0.84,0.82l-0.81,0.12
		c0.67-0.68,1.38-1.04,2.16-1.08c0.77-0.04,1.48,0.25,2.11,0.88c0.75,0.74,1.07,1.6,0.94,2.59c-0.13,0.99-0.65,1.96-1.58,2.9
		l-9.08,9.29l-2.13-2.08l9.02-9.22c0.45-0.46,0.7-0.91,0.74-1.36c0.05-0.45-0.12-0.85-0.48-1.21c-0.37-0.36-0.77-0.52-1.21-0.47
		c-0.44,0.05-0.88,0.3-1.33,0.76l-9.04,9.24l-1.79-1.76l9.02-9.22c0.46-0.47,0.71-0.93,0.74-1.38s-0.14-0.86-0.53-1.23
		c-0.37-0.36-0.77-0.51-1.19-0.45c-0.42,0.06-0.86,0.32-1.31,0.78l-9.04,9.24L299.52,87.52z"/>
	<path d="M316.68,106.22c-0.87-1.08-1.42-2.2-1.64-3.35c-0.23-1.16-0.13-2.26,0.29-3.32s1.15-2,2.18-2.83l3.48-2.8
		c1.05-0.84,2.13-1.35,3.24-1.53c1.11-0.18,2.21-0.04,3.29,0.43c1.08,0.47,2.06,1.24,2.92,2.32c0.88,1.09,1.43,2.22,1.65,3.36
		c0.22,1.15,0.12,2.25-0.29,3.3s-1.15,2-2.19,2.84l-2.37,1.9l-6.61-8.21l-1.11,0.89c-0.98,0.79-1.53,1.64-1.65,2.54
		c-0.12,0.91,0.2,1.83,0.95,2.76c0.61,0.76,1.23,1.26,1.88,1.51c0.64,0.25,1.26,0.23,1.87-0.07l2.08,2.58
		c-1.28,0.71-2.65,0.86-4.09,0.43C319.11,108.56,317.82,107.64,316.68,106.22z M326.8,102.77l0.82-0.66
		c0.97-0.78,1.52-1.62,1.66-2.53s-0.16-1.83-0.91-2.77c-0.74-0.92-1.57-1.41-2.5-1.47c-0.93-0.06-1.88,0.3-2.86,1.09l-0.6,0.49
		l4.77,5.87L326.8,102.77z"/>
	<path d="M363.76,137.57c1.32,3.14,0.33,6.79-3.95,8.59c-5.03,2.12-16.16-1.14-22.84-3.68c2.55-6.42,7.6-16.25,13.97-18.93
		c3.29-1.38,6.88-0.1,8.32,3.3c1.41,3.34,0.05,5.33-2.06,7.19C359.58,133.88,362.33,134.17,363.76,137.57z M339.79,141.36
		c4.84,1.6,13.62,5.1,18.85,2.9c3.17-1.33,4.27-3.21,3.03-6.15c-0.95-2.26-3.72-1.8-5.64-1.73c-0.93,0.19-1.69-0.33-1.99-1.05
		c-0.3-0.71-0.14-1.62,0.62-2.21c0.89-0.68,3.82-2.58,2.83-4.96c-1.17-2.77-3.19-3.5-6.19-2.24c-6.26,2.63-9.47,10.27-11.55,15.32
		L339.79,141.36z"/>
	<path d="M347.53,172.69l19.28-3.32l-1.03-5.96l3.06-0.53l2.62,15.21l-3.06,0.53l-1.03-5.96l-19.28,3.32L347.53,172.69z"/>
	<path d="M349.45,185.47l22.6-1.16l0.17,3.34l-5.57,0.29l-3.25,0.14l0.04,0.81l-0.82-0.77c1.36-0.07,2.45,0.28,3.25,1.04
		c0.8,0.77,1.24,1.86,1.32,3.28c0.09,1.69-0.38,3.07-1.42,4.14c-1.03,1.07-2.47,1.65-4.3,1.74l-11.33,0.58l-0.17-3.34l10.96-0.56
		c1.11-0.06,1.97-0.4,2.55-1.03c0.59-0.63,0.86-1.46,0.8-2.49c-0.05-1.05-0.42-1.87-1.1-2.44c-0.68-0.58-1.62-0.83-2.82-0.77
		l-10.74,0.55L349.45,185.47z"/>
	<path d="M349.47,208.39c0.12-1.77,0.67-3.14,1.66-4.1c0.99-0.96,2.27-1.39,3.86-1.28c1.61,0.11,2.83,0.73,3.68,1.88
		c0.85,1.14,1.21,2.66,1.08,4.56l-0.32,4.73l1.58,0.11c0.93,0.06,1.67-0.18,2.22-0.72c0.55-0.54,0.87-1.34,0.94-2.39
		c0.06-0.93-0.09-1.71-0.45-2.36c-0.36-0.65-0.87-1.04-1.52-1.19l0.22-3.28c1.51,0.29,2.68,1.07,3.51,2.36
		c0.83,1.29,1.18,2.87,1.05,4.75c-0.13,2.02-0.75,3.58-1.85,4.69c-1.1,1.11-2.53,1.6-4.28,1.49l-11.63-0.77l0.22-3.25l3.12,0.21
		l0.04-0.56l0.58,0.6c-1.24-0.08-2.19-0.62-2.86-1.62S349.36,209.96,349.47,208.39z M351.97,209.55c-0.08,1.2,0.16,2.2,0.72,3.01
		c0.56,0.81,1.31,1.25,2.26,1.32l2.23,0.15l0.31-4.67c0.06-0.87-0.13-1.57-0.57-2.1c-0.44-0.54-1.07-0.83-1.9-0.89
		c-0.87-0.06-1.57,0.2-2.12,0.76C352.35,207.69,352.04,208.5,351.97,209.55z"/>
	<path d="M348.64,221.35l16.76,3.16l-0.61,3.26l-3.2-0.6l-0.15,0.79l-0.61-0.94c1.34,0.25,2.31,0.85,2.91,1.78
		c0.6,0.93,0.77,2.1,0.51,3.5c-0.31,1.67-1.1,2.89-2.35,3.69c-1.25,0.79-2.79,1.02-4.59,0.68l-11.15-2.1l0.62-3.29l10.78,2.03
		c1.1,0.21,2,0.07,2.7-0.41c0.7-0.48,1.15-1.22,1.34-2.24c0.2-1.04,0.04-1.91-0.47-2.63c-0.51-0.72-1.35-1.18-2.53-1.41l-10.57-1.99
		L348.64,221.35z"/>
	<path d="M345.03,239.03l21.57,6.83l-1.01,3.19l-11.85-3.75l-0.91,2.87l5.17,6.38l-1.14,3.61l-6.17-7.64l-10.12,2.58l1.16-3.67
		l8.35-2.14l0.91-2.87l-6.97-2.21L345.03,239.03z"/>
	<path d="M325.49,271.63l4.34,5.51l17.02,2.93l-1.92,3.15l-10.06-1.96c-0.43-0.09-0.93-0.23-1.5-0.4s-1.04-0.32-1.41-0.42
		c0.27,0.26,0.62,0.61,1.04,1.03c0.42,0.42,0.77,0.81,1.04,1.14l6.47,7.86l-1.86,3.04l-15-18.87L325.49,271.63z"/>
	<path d="M317.75,292.48c0.87-1.11,1.83-1.9,2.9-2.38c1.06-0.48,2.15-0.63,3.28-0.46s2.21,0.68,3.27,1.51l3.46,2.72
		c1.07,0.84,1.82,1.79,2.25,2.83c0.43,1.04,0.53,2.14,0.32,3.29c-0.22,1.14-0.76,2.27-1.63,3.37s-1.83,1.9-2.89,2.38
		c-1.06,0.48-2.15,0.64-3.27,0.47c-1.12-0.17-2.21-0.67-3.28-1.52l-3.46-2.72c-1.06-0.83-1.8-1.77-2.24-2.82s-0.54-2.15-0.33-3.29
		C316.34,294.71,316.88,293.58,317.75,292.48z M320.07,294.3c-0.7,0.89-1,1.78-0.89,2.66c0.11,0.88,0.63,1.68,1.56,2.41l3.46,2.72
		c0.94,0.74,1.85,1.06,2.72,0.96c0.87-0.1,1.66-0.6,2.36-1.5c0.69-0.88,0.99-1.75,0.89-2.63s-0.62-1.69-1.56-2.43l-3.46-2.72
		c-0.93-0.73-1.83-1.04-2.72-0.93C321.54,292.93,320.76,293.42,320.07,294.3z"/>
	<path d="M305.85,305.85c1.45-1.45,3.02-2.18,4.72-2.2c1.7-0.02,3.28,0.69,4.72,2.14l7.58,7.59l-2.37,2.37l-7.58-7.59
		c-0.83-0.83-1.69-1.27-2.58-1.3c-0.88-0.04-1.7,0.32-2.44,1.06c-0.76,0.76-1.12,1.58-1.1,2.48s0.46,1.75,1.29,2.59l7.58,7.59
		l-2.37,2.37l-7.58-7.59c-1.45-1.45-2.16-3.03-2.13-4.74C303.64,308.89,304.39,307.31,305.85,305.85z"/>
	<path d="M280.18,326.82l6.35,10.43l4.13-2.51l1.58,2.59l-4.13,2.51l1.43,2.36c0.74,1.22,0.94,2.42,0.59,3.6
		c-0.35,1.18-1.19,2.18-2.53,2.99l-4.26,2.59l-1.55-2.54l4.21-2.56c0.49-0.3,0.8-0.66,0.93-1.07s0.04-0.85-0.23-1.31l-1.42-2.33
		l-5.77,3.51l-1.58-2.59l5.77-3.51l-6.35-10.43L280.18,326.82z"/>
	<path d="M261.9,336.37c1.28-0.58,2.5-0.84,3.66-0.78c1.16,0.06,2.2,0.43,3.12,1.1c0.92,0.67,1.66,1.62,2.21,2.84l1.82,4.01
		c0.56,1.24,0.8,2.42,0.69,3.55c-0.1,1.12-0.51,2.14-1.23,3.06c-0.72,0.92-1.72,1.67-3,2.25s-2.5,0.84-3.66,0.78
		s-2.2-0.42-3.12-1.09c-0.91-0.66-1.65-1.62-2.22-2.86l-1.82-4.01c-0.56-1.22-0.79-2.4-0.69-3.54c0.1-1.13,0.51-2.16,1.22-3.08
		C259.62,337.7,260.62,336.95,261.9,336.37z M263.12,339.05c-1.04,0.47-1.7,1.12-2.01,1.95c-0.3,0.83-0.21,1.78,0.28,2.85l1.82,4.01
		c0.5,1.09,1.16,1.79,1.98,2.1c0.82,0.31,1.75,0.23,2.78-0.24c1.02-0.46,1.68-1.11,2-1.93s0.23-1.78-0.27-2.88l-1.82-4.01
		c-0.49-1.07-1.15-1.77-1.98-2.08C265.06,338.51,264.13,338.58,263.12,339.05z"/>
	<path d="M251.15,341.19l5.14,16.26l-3.07,0.97l-0.98-3.1l-0.77,0.24l0.37-2.23c0.55,1.75,0.59,3.2,0.11,4.34
		c-0.49,1.14-1.49,1.95-3,2.43c-1.73,0.55-3.28,0.45-4.63-0.31s-2.33-2.07-2.92-3.94l-0.35-1.09l3.28-1.04l0.26,0.83
		c0.37,1.16,0.94,1.96,1.72,2.4c0.78,0.44,1.69,0.49,2.73,0.16c1.04-0.33,1.76-0.9,2.14-1.72c0.38-0.81,0.39-1.79,0.03-2.94
		l-3.25-10.26L251.15,341.19z"/>
	<path d="M216.21,349.26l1.13,17.01l-3.22,0.21l-0.22-3.25l-0.8,0.05l0.89-2.08c0.12,1.83-0.19,3.25-0.93,4.24
		c-0.74,0.99-1.91,1.54-3.5,1.65c-1.81,0.12-3.29-0.35-4.43-1.4c-1.14-1.05-1.77-2.56-1.9-4.52l-0.08-1.14l3.43-0.23l0.06,0.87
		c0.08,1.22,0.45,2.13,1.1,2.74c0.65,0.61,1.52,0.88,2.62,0.8s1.92-0.46,2.49-1.16c0.57-0.7,0.81-1.65,0.73-2.84l-0.71-10.73
		L216.21,349.26z"/>
	<path d="M192.15,349.49c1.38,0.07,2.58,0.41,3.6,1.01c1.01,0.6,1.77,1.41,2.28,2.43c0.51,1.02,0.73,2.19,0.66,3.51l-0.23,4.46
		c-0.07,1.34-0.41,2.49-1.02,3.44c-0.61,0.95-1.45,1.67-2.52,2.17c-1.07,0.49-2.3,0.7-3.68,0.63c-1.4-0.07-2.61-0.41-3.61-1.01
		c-1-0.6-1.76-1.41-2.27-2.41c-0.51-1.01-0.73-2.18-0.66-3.53l0.16-3.03l10.53,0.54l0.07-1.42c0.07-1.26-0.2-2.23-0.8-2.93
		c-0.6-0.69-1.49-1.07-2.69-1.13c-0.97-0.05-1.76,0.08-2.38,0.39c-0.62,0.31-1.01,0.79-1.19,1.44l-3.31-0.17
		c0.32-1.43,1.12-2.54,2.41-3.34C188.78,349.74,190.33,349.39,192.15,349.49z M187.98,359.33l-0.05,1.05
		c-0.06,1.24,0.2,2.21,0.78,2.93s1.47,1.1,2.67,1.16c1.18,0.06,2.1-0.23,2.76-0.88c0.67-0.65,1.03-1.6,1.09-2.86l0.04-0.77
		l-7.56-0.36L187.98,359.33z"/>
	<path d="M176.45,348.18l2.66,17.76l-3.36-0.58l-1.59-11.35c-0.11-0.67-0.2-1.34-0.27-2.01c-0.06-0.67-0.1-1.2-0.12-1.58
		c-0.17,0.35-0.39,0.83-0.67,1.44c-0.28,0.61-0.57,1.22-0.86,1.82l-5.25,10.17l-3.33-0.58l8.46-15.84L176.45,348.18z"/>
	<path d="M150.61,362.7c0.69,0.21,1.19,0.56,1.5,1.05c0.31,0.49,0.37,1.04,0.18,1.66c-0.19,0.63-0.55,1.07-1.07,1.31
		c-0.53,0.24-1.13,0.26-1.83,0.05c-0.69-0.21-1.19-0.56-1.5-1.05c-0.31-0.49-0.36-1.05-0.17-1.69c0.18-0.61,0.54-1.04,1.06-1.28
		C149.31,362.51,149.92,362.5,150.61,362.7z M163.33,345.65l-0.87,2.91l-5.73-1.72l-3.15,10.51l4.99,1.5l-0.87,2.91l-8.11-2.43
		l4.03-13.42l-5.26-1.58l0.87-2.91L163.33,345.65z"/>
	<path d="M140.11,337.23c1.27,0.55,2.27,1.29,3.01,2.21c0.74,0.92,1.16,1.95,1.28,3.08c0.11,1.13-0.09,2.3-0.62,3.52l-1.79,4.09
		c-0.54,1.23-1.26,2.18-2.16,2.86c-0.9,0.68-1.94,1.06-3.12,1.14c-1.17,0.08-2.4-0.15-3.67-0.71c-1.29-0.56-2.29-1.3-3.02-2.22
		c-0.73-0.92-1.15-1.94-1.27-3.06s0.09-2.3,0.63-3.53l1.22-2.78l9.66,4.22l0.57-1.31c0.5-1.16,0.6-2.16,0.29-3.02
		c-0.31-0.86-1.02-1.53-2.12-2.01c-0.89-0.39-1.68-0.55-2.36-0.48c-0.69,0.07-1.23,0.38-1.62,0.93l-3.04-1.33
		c0.81-1.23,1.95-1.98,3.43-2.27S138.45,336.5,140.11,337.23z M132.74,344.97l-0.42,0.97c-0.5,1.14-0.6,2.14-0.3,3.01
		c0.29,0.87,0.99,1.55,2.09,2.03c1.08,0.47,2.04,0.52,2.9,0.15c0.85-0.37,1.53-1.14,2.03-2.29l0.31-0.71l-6.94-3L132.74,344.97z"/>
	<path d="M129.01,332.3l-6.38,16.03l-2.43-1.43l4.35-10.5c0.19-0.49,0.42-1.02,0.67-1.6c0.26-0.58,0.47-1.06,0.65-1.44
		c-0.25,0.33-0.57,0.75-0.96,1.23s-0.76,0.94-1.11,1.36l-7.23,8.8l-2.43-1.43l4.21-10.58c0.2-0.5,0.42-1.05,0.66-1.64
		c0.24-0.59,0.45-1.07,0.62-1.45c-0.26,0.35-0.58,0.78-0.98,1.27s-0.77,0.95-1.1,1.35l-7.1,8.88l-2.35-1.38l11-13.31l3.05,1.79
		l-4.2,10.44c-0.22,0.54-0.45,1.12-0.7,1.73s-0.44,1.1-0.61,1.46c0.25-0.31,0.58-0.72,0.99-1.23s0.8-1,1.16-1.46l7.14-8.71
		L129.01,332.3z"/>
	<path d="M96.61,334.95c0.58,0.44,0.92,0.94,1.03,1.51c0.11,0.57-0.02,1.11-0.41,1.62c-0.4,0.53-0.89,0.81-1.47,0.85
		s-1.15-0.16-1.73-0.6c-0.57-0.44-0.92-0.94-1.03-1.51c-0.11-0.57,0.03-1.11,0.43-1.64c0.39-0.51,0.87-0.78,1.45-0.83
		C95.46,334.31,96.04,334.51,96.61,334.95z M114.53,323.47l-1.84,2.42l-4.76-3.63l-6.65,8.73l4.14,3.16l-1.84,2.42l-6.73-5.13
		l8.5-11.14l-4.36-3.33l1.84-2.42L114.53,323.47z"/>
	<path d="M100.34,312.31l-11.88,12.23l-2.38-2.31l2.27-2.34l-0.58-0.56l1.12,0c-0.95,0.98-1.98,1.46-3.09,1.45
		c-1.11-0.01-2.18-0.52-3.2-1.51c-1.22-1.18-1.81-2.51-1.78-4c0.03-1.48,0.68-2.89,1.97-4.21l7.9-8.14l2.4,2.33l-7.64,7.88
		c-0.78,0.8-1.16,1.62-1.15,2.47c0.01,0.85,0.39,1.63,1.13,2.35c0.76,0.73,1.57,1.09,2.45,1.06c0.88-0.03,1.73-0.47,2.57-1.33
		l7.49-7.72L100.34,312.31z"/>
	<path d="M90.56,294.34l-2.24,1.82l-3.3-4.07c-0.55-0.67-1.11-1.05-1.7-1.12c-0.59-0.07-1.19,0.15-1.82,0.66l-1.32,1.07l-2.5,1.94
		l0.45,0.55l-0.91-0.14c1.01-0.82,2.06-1.15,3.16-0.98c1.09,0.17,2.07,0.79,2.95,1.86c1.11,1.37,1.53,2.8,1.27,4.32
		c-0.26,1.52-1.15,2.89-2.68,4.13l-2.7,2.19c-1.52,1.24-3.06,1.83-4.59,1.77c-1.54-0.06-2.86-0.77-3.96-2.13
		c-0.87-1.08-1.27-2.17-1.2-3.28c0.07-1.11,0.61-2.07,1.62-2.89L71,300.98l-0.43-0.53l-2.51,2.07l-2.09-2.58l13.49-10.93
		c1.27-1.03,2.59-1.44,3.97-1.23s2.65,1.03,3.81,2.46L90.56,294.34z M80.4,296.92c-0.66-0.82-1.44-1.26-2.33-1.32s-1.78,0.27-2.68,1
		l-2.43,1.97c-0.9,0.73-1.41,1.54-1.53,2.42c-0.12,0.88,0.15,1.73,0.81,2.55c0.69,0.85,1.47,1.31,2.33,1.37
		c0.86,0.06,1.76-0.29,2.69-1.04l2.43-1.97c0.92-0.74,1.44-1.54,1.56-2.4C81.37,298.62,81.09,297.77,80.4,296.92z"/>
	<path d="M67.53,270.83l-15.41,7.29l-1.19-2.52l1.96-0.93l-0.27-0.56l0.79,0.14c-0.86,0.41-1.66,0.5-2.39,0.27
		c-0.73-0.22-1.29-0.73-1.66-1.51c-0.4-0.84-0.38-1.64,0.06-2.41c0.44-0.77,1.23-1.42,2.37-1.96L50.68,270l-0.5-1.06l0.8,0.17
		c-0.86,0.41-1.66,0.49-2.4,0.26c-0.74-0.23-1.3-0.75-1.68-1.55c-0.45-0.95-0.44-1.87,0.02-2.75c0.46-0.88,1.29-1.61,2.49-2.17
		l11.74-5.56l1.27,2.69l-11.66,5.52c-0.58,0.27-0.97,0.61-1.17,1.01c-0.2,0.4-0.19,0.84,0.03,1.3c0.22,0.47,0.54,0.75,0.97,0.86
		s0.93,0.02,1.51-0.25l11.69-5.53l1.07,2.27l-11.66,5.52c-0.6,0.28-0.99,0.63-1.17,1.04c-0.18,0.41-0.16,0.85,0.07,1.34
		c0.22,0.47,0.54,0.74,0.96,0.83s0.92-0.01,1.5-0.28l11.69-5.53L67.53,270.83z"/>
	<path d="M64.2,249.43l-7.01-0.25l-13.23,11.1l-1.17-3.5l7.99-6.42c0.35-0.27,0.77-0.56,1.27-0.88c0.5-0.32,0.92-0.59,1.24-0.8
		c-0.38,0.04-0.87,0.08-1.46,0.13c-0.59,0.05-1.11,0.07-1.55,0.06l-10.18-0.14l-1.13-3.38l24.1,0.73L64.2,249.43z"/>
	<path d="M56.61,218.56l-22.56,1.84l-0.27-3.31l3.24-0.26l-0.06-0.71l0.83,0.65c-1.34,0.11-2.43-0.22-3.27-0.99
		s-1.32-1.86-1.43-3.26c-0.14-1.71,0.32-3.12,1.38-4.23c1.06-1.11,2.58-1.75,4.56-1.91l4.79-0.39c1.32-0.11,2.48,0.03,3.47,0.42
		c1,0.38,1.79,0.97,2.38,1.76c0.59,0.79,0.94,1.76,1.03,2.92c0.11,1.38-0.18,2.52-0.89,3.43s-1.72,1.42-3.06,1.52l0.71-0.77
		l0.06,0.77l3.95-0.42l4.85-0.4L56.61,218.56z M47.9,212.46c-0.09-1.09-0.47-1.92-1.15-2.47c-0.68-0.56-1.61-0.79-2.81-0.69
		l-4.45,0.36c-1.19,0.1-2.08,0.48-2.66,1.13c-0.58,0.66-0.82,1.53-0.73,2.63c0.09,1.05,0.48,1.86,1.18,2.42
		c0.7,0.56,1.63,0.8,2.78,0.71l4.45-0.36c1.15-0.09,2.03-0.48,2.63-1.15S47.98,213.51,47.9,212.46z"/>
	<path d="M50.38,194.39c-0.05,1.4-0.37,2.61-0.94,3.63c-0.58,1.01-1.37,1.78-2.38,2.3c-1.01,0.52-2.19,0.76-3.53,0.71l-4.4-0.16
		c-1.36-0.05-2.52-0.37-3.49-0.97c-0.96-0.59-1.69-1.42-2.19-2.47c-0.5-1.05-0.72-2.28-0.67-3.69c0.05-1.4,0.37-2.61,0.94-3.63
		c0.58-1.01,1.36-1.78,2.36-2.3c1-0.52,2.18-0.76,3.55-0.71l4.4,0.16c1.34,0.05,2.5,0.37,3.47,0.97s1.71,1.42,2.2,2.47
		C50.21,191.76,50.43,192.99,50.38,194.39z M47.44,194.28c0.04-1.14-0.24-2.03-0.85-2.67c-0.61-0.64-1.5-0.99-2.68-1.03l-4.4-0.16
		c-1.2-0.04-2.12,0.23-2.76,0.83c-0.64,0.6-0.98,1.46-1.03,2.6c-0.04,1.12,0.24,2,0.83,2.65c0.6,0.65,1.49,1,2.69,1.04l4.4,0.16
		c1.18,0.04,2.09-0.24,2.75-0.85C47.05,196.26,47.4,195.4,47.44,194.28z"/>
	<path d="M50.87,182.58l-16.84-2.65l0.5-3.18l3.22,0.51l0.12-0.8l1.83,1.32c-1.82-0.29-3.13-0.9-3.93-1.84s-1.08-2.2-0.83-3.77
		c0.28-1.8,1.06-3.13,2.34-4.01c1.28-0.88,2.89-1.16,4.83-0.86l1.13,0.18l-0.53,3.4l-0.86-0.13c-1.2-0.19-2.18-0.03-2.91,0.47
		s-1.19,1.29-1.36,2.37c-0.17,1.08,0.02,1.98,0.58,2.68c0.56,0.71,1.43,1.15,2.61,1.34l10.63,1.67L50.87,182.58z"/>
	<path d="M56.18,157.2c-0.42,1.49-1.16,2.54-2.21,3.14c-1.05,0.6-2.3,0.7-3.76,0.29l-8.86-2.51l-1.29,4.53l-2.92-0.83l1.29-4.53
		l-4.62-1.31l0.91-3.22l4.62,1.31l1.82-6.41l2.92,0.83l-1.82,6.41l8.86,2.51c1.13,0.32,1.85-0.06,2.17-1.16l1.27-4.47l2.92,0.83
		L56.18,157.2z"/>
	<path d="M60.56,144.55l-11.26-4.72l-1.87,4.46l-2.8-1.17l1.87-4.46l-2.54-1.07c-1.31-0.55-2.18-1.41-2.59-2.56
		c-0.41-1.16-0.31-2.46,0.29-3.91l1.93-4.6l2.74,1.15l-1.91,4.55c-0.22,0.53-0.26,1-0.12,1.41c0.14,0.41,0.46,0.71,0.96,0.92
		l2.52,1.05l2.61-6.23l2.8,1.17l-2.61,6.23l11.26,4.72L60.56,144.55z"/>
	<path d="M69.75,126.11c-0.69,1.22-1.53,2.15-2.51,2.78s-2.04,0.95-3.17,0.94c-1.14,0-2.29-0.34-3.46-1l-3.83-2.18
		c-1.19-0.67-2.07-1.5-2.65-2.47s-0.84-2.04-0.8-3.2c0.04-1.16,0.41-2.36,1.11-3.58c0.69-1.22,1.53-2.15,2.51-2.78
		s2.03-0.95,3.16-0.95c1.13,0,2.29,0.34,3.47,1.01l3.83,2.18c1.17,0.66,2.05,1.48,2.63,2.46c0.59,0.98,0.86,2.05,0.81,3.21
		C70.81,123.7,70.44,124.89,69.75,126.11z M67.19,124.66c0.56-0.99,0.72-1.91,0.48-2.76c-0.24-0.85-0.87-1.57-1.9-2.15l-3.83-2.18
		c-1.04-0.59-1.99-0.77-2.83-0.54c-0.85,0.23-1.55,0.84-2.11,1.83c-0.55,0.97-0.71,1.88-0.49,2.74c0.23,0.85,0.86,1.58,1.9,2.17
		l3.83,2.18c1.02,0.58,1.97,0.76,2.83,0.52C65.93,126.23,66.64,125.63,67.19,124.66z"/>
	<path d="M80.75,108.96c-0.63,0.85-1.34,1.46-2.15,1.84c-0.81,0.38-1.66,0.52-2.55,0.41c-0.9-0.11-1.76-0.47-2.59-1.09l-11.59-8.57
		l-3.32,4.49l-2.44-1.81l5.31-7.18l14.04,10.37c0.53,0.39,1.06,0.55,1.59,0.48c0.53-0.07,0.98-0.37,1.36-0.88l3.13-4.24l2.44,1.81
		L80.75,108.96z"/>
	<path d="M76.59,83.09c-0.5,0.53-1.03,0.82-1.61,0.87c-0.58,0.05-1.1-0.14-1.56-0.58c-0.48-0.45-0.71-0.97-0.69-1.55
		c0.02-0.58,0.28-1.13,0.77-1.66c0.5-0.53,1.03-0.82,1.61-0.87c0.58-0.05,1.1,0.15,1.59,0.6c0.47,0.44,0.69,0.95,0.67,1.53
		C77.34,82.01,77.08,82.56,76.59,83.09z M86.15,102.1l-2.21-2.08l4.1-4.35l-7.99-7.53l-3.57,3.79l-2.21-2.08l5.8-6.16l10.2,9.61
		l3.76-3.99l2.21,2.08L86.15,102.1z"/>
	<path d="M104.05,85.06c-1.08,0.9-2.19,1.48-3.32,1.73c-1.14,0.25-2.24,0.17-3.3-0.23c-1.06-0.4-2.03-1.12-2.89-2.15l-2.82-3.38
		c-0.88-1.05-1.41-2.13-1.61-3.24c-0.2-1.11-0.08-2.2,0.37-3.28c0.45-1.07,1.21-2.06,2.29-2.96c1.08-0.9,2.19-1.48,3.32-1.73
		c1.14-0.25,2.24-0.18,3.29,0.22s2.02,1.12,2.9,2.16l2.82,3.38c0.86,1.03,1.4,2.11,1.6,3.23c0.21,1.12,0.09,2.22-0.36,3.29
		C105.89,83.17,105.13,84.16,104.05,85.06z M102.16,82.8c0.87-0.73,1.34-1.53,1.42-2.42c0.07-0.88-0.27-1.77-1.03-2.68l-2.82-3.38
		c-0.77-0.92-1.59-1.42-2.46-1.5s-1.75,0.25-2.62,0.98c-0.86,0.72-1.33,1.51-1.41,2.39c-0.09,0.88,0.26,1.78,1.02,2.7l2.82,3.38
		c0.76,0.9,1.58,1.4,2.46,1.48C100.43,83.83,101.31,83.52,102.16,82.8z"/>
</g>
</svg>
