<?xml version="1.0" encoding="utf-8"?>
<!-- Generator: Adobe Illustrator 28.1.0, SVG Export Plug-In . SVG Version: 6.00 Build 0)  -->
<svg viewBox="0 0 35 35">
<style type="text/css">
	.st0{fill:none;stroke:#454545;stroke-linejoin:round;stroke-miterlimit:10;}
</style>
<g>
	<path class="st0" d="M32.9,6.6L17.5,19.8L2.1,6.6C1.7,6.9,1.5,7.4,1.5,7.9v19.2c0,1,0.8,1.8,1.8,1.8h28.3c1,0,1.8-0.8,1.8-1.8V7.9
		C33.5,7.4,33.3,6.9,32.9,6.6z"/>
	<path class="st0" d="M31.7,6.1c0.5,0,0.9,0.2,1.2,0.5"/>
	<path class="st0" d="M2.1,6.6c0.3-0.3,0.8-0.5,1.2-0.5"/>
	<path class="st0" d="M32.9,6.6c-0.3-0.3-0.8-0.5-1.2-0.5H3.3c-0.5,0-0.9,0.2-1.2,0.5l15.4,13.2L32.9,6.6z"/>
</g>
</svg>
