<?xml version="1.0" encoding="utf-8"?>
<!-- Generator: Adobe Illustrator 28.1.0, SVG Export Plug-In . SVG Version: 6.00 Build 0)  -->
<svg viewBox="0 0 35 35">
<style type="text/css">
	.st0{fill:none;stroke:#454545;stroke-linejoin:round;stroke-miterlimit:10;}
</style>
<path class="st0" d="M31.5,8.4V24c0,0.6-0.5,1.1-1.1,1.1H13c-0.6,0-1.1-0.5-1.1-1.1V2.6c0-0.6,0.5-1.1,1.1-1.1h11.7v6.9H31.5z
	 M13,25.1c-0.6,0-1.1-0.5-1.1-1.1V9.9H4.6C4,9.9,3.5,10.4,3.5,11v21.4c0,0.6,0.5,1.1,1.1,1.1H22c0.6,0,1.1-0.5,1.1-1.1v-7.2H13z
	 M24.6,1.5v6.9h6.9L24.6,1.5z"/>
</svg>
